<mxfile host="app.diagrams.net" modified="2023-09-01T00:16:34.246Z" agent="Mozilla/5.0 (Macintosh; Intel Mac OS X 10_15_7) AppleWebKit/537.36 (KHTML, like Gecko) Chrome/116.0.0.0 Safari/537.36" etag="-8SsQ080UJCrESqXEAb-" version="21.6.9" type="github">
  <diagram id="R2lEEEUBdFMjLlhIrx00" name="Page-1">
    <mxGraphModel dx="1674" dy="797" grid="1" gridSize="10" guides="1" tooltips="1" connect="1" arrows="1" fold="1" page="1" pageScale="1" pageWidth="850" pageHeight="1100" math="0" shadow="0" extFonts="Permanent Marker^https://fonts.googleapis.com/css?family=Permanent+Marker">
      <root>
        <mxCell id="0" />
        <mxCell id="1" parent="0" />
        <mxCell id="C-vyLk0tnHw3VtMMgP7b-23" value="Hotel" style="shape=table;startSize=30;container=1;collapsible=1;childLayout=tableLayout;fixedRows=1;rowLines=0;fontStyle=1;align=center;resizeLast=1;" parent="1" vertex="1">
          <mxGeometry x="300" y="40" width="250" height="70" as="geometry" />
        </mxCell>
        <mxCell id="C-vyLk0tnHw3VtMMgP7b-27" value="" style="shape=partialRectangle;collapsible=0;dropTarget=0;pointerEvents=0;fillColor=none;points=[[0,0.5],[1,0.5]];portConstraint=eastwest;top=0;left=0;right=0;bottom=0;" parent="C-vyLk0tnHw3VtMMgP7b-23" vertex="1">
          <mxGeometry y="30" width="250" height="30" as="geometry" />
        </mxCell>
        <mxCell id="C-vyLk0tnHw3VtMMgP7b-28" value="" style="shape=partialRectangle;overflow=hidden;connectable=0;fillColor=none;top=0;left=0;bottom=0;right=0;" parent="C-vyLk0tnHw3VtMMgP7b-27" vertex="1">
          <mxGeometry width="30" height="30" as="geometry">
            <mxRectangle width="30" height="30" as="alternateBounds" />
          </mxGeometry>
        </mxCell>
        <mxCell id="C-vyLk0tnHw3VtMMgP7b-29" value="+ ID&#xa;+ Nome " style="shape=partialRectangle;overflow=hidden;connectable=0;fillColor=none;top=0;left=0;bottom=0;right=0;align=left;spacingLeft=6;" parent="C-vyLk0tnHw3VtMMgP7b-27" vertex="1">
          <mxGeometry x="30" width="220" height="30" as="geometry">
            <mxRectangle width="220" height="30" as="alternateBounds" />
          </mxGeometry>
        </mxCell>
        <mxCell id="p2iMJBAIGo9_8bAQqah9-1" value="Quarto" style="shape=table;startSize=30;container=1;collapsible=1;childLayout=tableLayout;fixedRows=1;rowLines=0;fontStyle=1;align=center;resizeLast=1;" vertex="1" parent="1">
          <mxGeometry x="335" y="190" width="180" height="70" as="geometry" />
        </mxCell>
        <mxCell id="p2iMJBAIGo9_8bAQqah9-2" value="" style="shape=partialRectangle;collapsible=0;dropTarget=0;pointerEvents=0;fillColor=none;points=[[0,0.5],[1,0.5]];portConstraint=eastwest;top=0;left=0;right=0;bottom=0;" vertex="1" parent="p2iMJBAIGo9_8bAQqah9-1">
          <mxGeometry y="30" width="180" height="30" as="geometry" />
        </mxCell>
        <mxCell id="p2iMJBAIGo9_8bAQqah9-3" value="" style="shape=partialRectangle;overflow=hidden;connectable=0;fillColor=none;top=0;left=0;bottom=0;right=0;" vertex="1" parent="p2iMJBAIGo9_8bAQqah9-2">
          <mxGeometry width="30" height="30" as="geometry">
            <mxRectangle width="30" height="30" as="alternateBounds" />
          </mxGeometry>
        </mxCell>
        <mxCell id="p2iMJBAIGo9_8bAQqah9-4" value="+ ID&#xa;+ Nome " style="shape=partialRectangle;overflow=hidden;connectable=0;fillColor=none;top=0;left=0;bottom=0;right=0;align=left;spacingLeft=6;" vertex="1" parent="p2iMJBAIGo9_8bAQqah9-2">
          <mxGeometry x="30" width="150" height="30" as="geometry">
            <mxRectangle width="150" height="30" as="alternateBounds" />
          </mxGeometry>
        </mxCell>
        <mxCell id="p2iMJBAIGo9_8bAQqah9-12" value="Reserva" style="swimlane;childLayout=stackLayout;horizontal=1;startSize=50;horizontalStack=0;rounded=1;fontSize=14;fontStyle=0;strokeWidth=2;resizeParent=0;resizeLast=1;shadow=0;dashed=0;align=center;arcSize=4;whiteSpace=wrap;html=1;" vertex="1" parent="1">
          <mxGeometry x="550" y="300" width="170" height="160" as="geometry" />
        </mxCell>
        <mxCell id="p2iMJBAIGo9_8bAQqah9-13" value="+ ID&lt;br&gt;+Hóspede&lt;br&gt;+ Quarto&lt;br&gt;+ Data e Hora de Saída&lt;br&gt;+ Data e Hora de Entrada" style="align=left;strokeColor=none;fillColor=none;spacingLeft=4;fontSize=12;verticalAlign=top;resizable=0;rotatable=0;part=1;html=1;" vertex="1" parent="p2iMJBAIGo9_8bAQqah9-12">
          <mxGeometry y="50" width="170" height="110" as="geometry" />
        </mxCell>
        <mxCell id="p2iMJBAIGo9_8bAQqah9-14" value="Hóspede" style="swimlane;childLayout=stackLayout;horizontal=1;startSize=50;horizontalStack=0;rounded=1;fontSize=14;fontStyle=0;strokeWidth=2;resizeParent=0;resizeLast=1;shadow=0;dashed=0;align=center;arcSize=4;whiteSpace=wrap;html=1;" vertex="1" parent="1">
          <mxGeometry x="120" y="300" width="160" height="150" as="geometry" />
        </mxCell>
        <mxCell id="p2iMJBAIGo9_8bAQqah9-15" value="+ ID&lt;br&gt;+ Nome&amp;nbsp;&lt;br&gt;+ Telefone&lt;br&gt;+ Endeços&lt;br&gt;+ Telefones para contato&lt;br&gt;+ Dependentes" style="align=left;strokeColor=none;fillColor=none;spacingLeft=4;fontSize=12;verticalAlign=top;resizable=0;rotatable=0;part=1;html=1;" vertex="1" parent="p2iMJBAIGo9_8bAQqah9-14">
          <mxGeometry y="50" width="160" height="100" as="geometry" />
        </mxCell>
        <mxCell id="p2iMJBAIGo9_8bAQqah9-16" value="" style="endArrow=none;html=1;rounded=0;" edge="1" parent="1" source="p2iMJBAIGo9_8bAQqah9-18" target="p2iMJBAIGo9_8bAQqah9-12">
          <mxGeometry relative="1" as="geometry">
            <mxPoint x="340" y="360" as="sourcePoint" />
            <mxPoint x="450" y="360" as="targetPoint" />
          </mxGeometry>
        </mxCell>
        <mxCell id="p2iMJBAIGo9_8bAQqah9-17" value="N" style="resizable=0;html=1;whiteSpace=wrap;align=right;verticalAlign=bottom;" connectable="0" vertex="1" parent="p2iMJBAIGo9_8bAQqah9-16">
          <mxGeometry x="1" relative="1" as="geometry" />
        </mxCell>
        <mxCell id="p2iMJBAIGo9_8bAQqah9-19" value="" style="endArrow=none;html=1;rounded=0;" edge="1" parent="1" source="p2iMJBAIGo9_8bAQqah9-14">
          <mxGeometry relative="1" as="geometry">
            <mxPoint x="277.77" y="387.504503816794" as="sourcePoint" />
            <mxPoint x="504.9983356258597" y="373.6279642365888" as="targetPoint" />
          </mxGeometry>
        </mxCell>
        <mxCell id="p2iMJBAIGo9_8bAQqah9-18" value="" style="shape=rhombus;perimeter=rhombusPerimeter;whiteSpace=wrap;html=1;align=center;" vertex="1" parent="1">
          <mxGeometry x="505" y="362.5" width="45" height="25" as="geometry" />
        </mxCell>
        <mxCell id="p2iMJBAIGo9_8bAQqah9-22" value="" style="endArrow=none;html=1;rounded=0;" edge="1" parent="1" source="C-vyLk0tnHw3VtMMgP7b-23" target="p2iMJBAIGo9_8bAQqah9-1">
          <mxGeometry relative="1" as="geometry">
            <mxPoint x="400" y="130" as="sourcePoint" />
            <mxPoint x="560" y="130" as="targetPoint" />
          </mxGeometry>
        </mxCell>
        <mxCell id="p2iMJBAIGo9_8bAQqah9-23" value="N" style="resizable=0;html=1;whiteSpace=wrap;align=right;verticalAlign=bottom;" connectable="0" vertex="1" parent="p2iMJBAIGo9_8bAQqah9-22">
          <mxGeometry x="1" relative="1" as="geometry" />
        </mxCell>
        <mxCell id="p2iMJBAIGo9_8bAQqah9-24" value="" style="endArrow=none;html=1;rounded=0;" edge="1" parent="1" source="p2iMJBAIGo9_8bAQqah9-1" target="p2iMJBAIGo9_8bAQqah9-14">
          <mxGeometry relative="1" as="geometry">
            <mxPoint x="250" y="240" as="sourcePoint" />
            <mxPoint x="410" y="240" as="targetPoint" />
          </mxGeometry>
        </mxCell>
        <mxCell id="p2iMJBAIGo9_8bAQqah9-25" value="N" style="resizable=0;html=1;whiteSpace=wrap;align=right;verticalAlign=bottom;" connectable="0" vertex="1" parent="p2iMJBAIGo9_8bAQqah9-24">
          <mxGeometry x="1" relative="1" as="geometry" />
        </mxCell>
        <mxCell id="p2iMJBAIGo9_8bAQqah9-26" value="" style="endArrow=none;html=1;rounded=0;" edge="1" parent="1" source="p2iMJBAIGo9_8bAQqah9-1" target="p2iMJBAIGo9_8bAQqah9-12">
          <mxGeometry relative="1" as="geometry">
            <mxPoint x="540" y="230" as="sourcePoint" />
            <mxPoint x="700" y="230" as="targetPoint" />
          </mxGeometry>
        </mxCell>
        <mxCell id="p2iMJBAIGo9_8bAQqah9-27" value="1" style="resizable=0;html=1;whiteSpace=wrap;align=right;verticalAlign=bottom;" connectable="0" vertex="1" parent="p2iMJBAIGo9_8bAQqah9-26">
          <mxGeometry x="1" relative="1" as="geometry" />
        </mxCell>
        <mxCell id="p2iMJBAIGo9_8bAQqah9-28" value="" style="endArrow=none;html=1;rounded=0;" edge="1" parent="1">
          <mxGeometry relative="1" as="geometry">
            <mxPoint x="350" y="250" as="sourcePoint" />
            <mxPoint x="510" y="250" as="targetPoint" />
          </mxGeometry>
        </mxCell>
        <mxCell id="p2iMJBAIGo9_8bAQqah9-29" value="N" style="resizable=0;html=1;whiteSpace=wrap;align=right;verticalAlign=bottom;" connectable="0" vertex="1" parent="p2iMJBAIGo9_8bAQqah9-28">
          <mxGeometry x="1" relative="1" as="geometry" />
        </mxCell>
        <mxCell id="p2iMJBAIGo9_8bAQqah9-30" value="" style="endArrow=none;html=1;rounded=0;" edge="1" parent="1" source="C-vyLk0tnHw3VtMMgP7b-23" target="p2iMJBAIGo9_8bAQqah9-14">
          <mxGeometry relative="1" as="geometry">
            <mxPoint x="210" y="180" as="sourcePoint" />
            <mxPoint x="370" y="180" as="targetPoint" />
            <Array as="points">
              <mxPoint x="200" y="80" />
            </Array>
          </mxGeometry>
        </mxCell>
        <mxCell id="p2iMJBAIGo9_8bAQqah9-31" value="N" style="resizable=0;html=1;whiteSpace=wrap;align=right;verticalAlign=bottom;" connectable="0" vertex="1" parent="p2iMJBAIGo9_8bAQqah9-30">
          <mxGeometry x="1" relative="1" as="geometry" />
        </mxCell>
        <mxCell id="p2iMJBAIGo9_8bAQqah9-32" value="" style="endArrow=none;html=1;rounded=0;" edge="1" parent="1" source="C-vyLk0tnHw3VtMMgP7b-23" target="p2iMJBAIGo9_8bAQqah9-12">
          <mxGeometry relative="1" as="geometry">
            <mxPoint x="600" y="130" as="sourcePoint" />
            <mxPoint x="760" y="130" as="targetPoint" />
            <Array as="points">
              <mxPoint x="640" y="75" />
            </Array>
          </mxGeometry>
        </mxCell>
        <mxCell id="p2iMJBAIGo9_8bAQqah9-33" value="N" style="resizable=0;html=1;whiteSpace=wrap;align=right;verticalAlign=bottom;" connectable="0" vertex="1" parent="p2iMJBAIGo9_8bAQqah9-32">
          <mxGeometry x="1" relative="1" as="geometry" />
        </mxCell>
        <mxCell id="p2iMJBAIGo9_8bAQqah9-35" value="1" style="text;html=1;strokeColor=none;fillColor=none;align=center;verticalAlign=middle;whiteSpace=wrap;rounded=0;" vertex="1" parent="1">
          <mxGeometry x="335" y="260" width="60" height="30" as="geometry" />
        </mxCell>
      </root>
    </mxGraphModel>
  </diagram>
</mxfile>
